<?xml version="1.0" standalone="no"?>
<!DOCTYPE svg PUBLIC "-//W3C//DTD SVG 20010904//EN"
 "http://www.w3.org/TR/2001/REC-SVG-20010904/DTD/svg10.dtd">
<svg version="1.0" xmlns="http://www.w3.org/2000/svg"
 width="1024.000000pt" height="1024.000000pt" viewBox="0 0 1024.000000 1024.000000"
 preserveAspectRatio="xMidYMid meet">
<metadata>
Created by potrace 1.14, written by Peter Selinger 2001-2017
</metadata>
<g transform="translate(0.000000,1024.000000) scale(0.100000,-0.100000)"
fill="#000000" stroke="none">
<path d="M4775 10229 c-646 -44 -1292 -215 -1880 -498 -1769 -854 -2895 -2646
-2895 -4611 0 -1965 1126 -3757 2895 -4611 1408 -679 3042 -679 4450 0 1769
854 2895 2646 2895 4611 0 2212 -1423 4176 -3526 4866 -612 200 -1297 286
-1939 243z m533 -1429 c408 -43 804 -228 1100 -514 268 -259 462 -627 533
-1016 l23 -125 4 -1167 3 -1168 -311 -155 -310 -155 -609 304 c-335 168 -612
302 -615 299 -3 -4 -6 -279 -6 -612 l0 -606 -915 -458 c-503 -251 -920 -457
-925 -457 -7 0 -10 669 -8 2088 l3 2087 24 125 c35 190 140 498 164 483 5 -3
7 -1 3 5 -8 13 14 63 25 56 5 -3 6 3 2 12 -5 13 -3 15 7 9 9 -5 11 -4 6 3 -9
15 12 54 24 47 6 -4 7 1 3 11 -4 11 -2 15 4 11 6 -4 10 1 9 11 0 9 5 16 12 14
8 -1 11 2 7 8 -8 13 19 52 30 42 5 -4 5 -2 2 4 -13 23 128 199 255 320 387
364 933 549 1456 494z m1658 -7367 c-2 -2 -418 203 -925 456 l-921 461 -920
-460 c-506 -253 -922 -460 -925 -460 -3 0 -4 163 -3 361 l3 362 915 458 c503
252 922 458 930 458 8 1 282 -133 610 -296 327 -164 598 -299 602 -301 4 -2 8
270 8 605 l0 608 313 156 312 156 3 -1280 c1 -704 0 -1282 -2 -1284z"/>
</g>
</svg>
