<?xml version="1.0" encoding="UTF-8" standalone="no"?>
<!-- Created with Friction - https://friction.graphics -->

<svg xmlns="http://www.w3.org/2000/svg" xmlns:xlink="http://www.w3.org/1999/xlink" viewBox="0 0 1024 1024">
 <g transform="translate(5 5)">
  <g transform="translate(-42.8333 -36.3789)">
   <g transform="rotate(0)">
    <g>
     <animateTransform values="0.997888 1;0.997888 1;0 1;0 1;1 1" keyTimes="0;0.475;0.5;0.975;1" type="scale" repeatCount="indefinite" dur="0.666667s" attributeName="transform" keySplines="0 0 1 1;0 0 1 1;0 0.333333 1 0.666667;0 0 1 1" calcMode="spline"/>
     <g>
      <animateTransform values="1 0.997888;1 0.997888;1 0;1 0;1 1" keyTimes="0;0.475;0.5;0.975;1" type="scale" repeatCount="indefinite" dur="0.666667s" attributeName="transform" keySplines="0 0 1 1;0 0 1 1;0 0.333333 1 0.666667;0 0 1 1" calcMode="spline"/>
      <g transform="skewX(0) skewY(0)">
       <g transform="translate(-5 -5)" opacity="1">
        <rect ry="0" fill="rgba(255, 255, 255, 1)" height="1113.12" stroke="none" stroke-width="2" width="1125.99" rx="0" y="0" x="0"/>
       </g>
      </g>
     </g>
    </g>
   </g>
  </g>
 </g>
 <g transform="translate(512 512)">
  <g transform="translate(0 0)">
   <g transform="rotate(0)">
    <g transform="scale(0.47254 0.47254)">
     <g transform="skewX(0) skewY(0)">
      <g transform="translate(-512 -512)" opacity="1">
       <g>
        <g transform="translate(512 432.548)">
         <g transform="translate(0 0)">
          <g transform="rotate(0)">
           <g transform="scale(1 1)">
            <g transform="skewX(0) skewY(0)">
             <g transform="translate(-512 -432.548)" opacity="1">
              <path fill="rgba(255, 255, 255, 1)" stroke="rgba(255, 255, 255, 1)" stroke-width="1.60155" d="M512 130.631C561.922 130.631 611.535 151.182 646.835 186.481C682.134 221.781 702.685 271.394 702.685 321.315C702.685 321.315 702.685 543.781 702.685 543.781C702.685 543.781 639.123 575.562 639.123 575.562C639.123 575.562 512 512 512 512C512 512 512 639.123 512 639.123C512 639.123 321.315 734.466 321.315 734.466C321.315 734.466 321.316 321.315 321.316 321.315C321.316 271.394 341.866 221.781 377.166 186.481C412.465 151.181 462.079 130.631 512 130.631C512 130.631 512 130.631 512 130.631Z"/>
             </g>
            </g>
           </g>
          </g>
         </g>
        </g>
        <g transform="translate(512 760.949)">
         <g transform="translate(0 0)">
          <g transform="rotate(0)">
           <g transform="scale(1 1)">
            <g transform="skewX(0) skewY(0)">
             <g transform="translate(-512 -760.949)" opacity="1">
              <path fill="rgba(255, 255, 255, 1)" stroke="rgba(255, 255, 255, 1)" stroke-width="1.60155" d="M321.315 819.214C321.315 819.214 321.315 893.369 321.315 893.369C321.315 893.369 512 798.026 512 798.026C512 798.026 702.685 893.369 702.685 893.369C702.685 893.369 702.685 628.53 702.685 628.53C702.685 628.53 639.123 660.311 639.123 660.311C639.123 660.311 639.123 787.434 639.123 787.434C639.123 787.434 512 723.872 512 723.872C512 723.872 321.315 819.214 321.315 819.214Z"/>
             </g>
            </g>
           </g>
          </g>
         </g>
        </g>
       </g>
      </g>
     </g>
    </g>
   </g>
  </g>
 </g>
 <g transform="translate(0 0)">
  <g transform="translate(512 512)">
   <g transform="rotate(0)">
    <g>
     <animateTransform values="1.5 1;1.5 1;0.0749948 1;1.5 1;0 1;1.5 1" keyTimes="0;0;0.475;0.5;0.975;1" type="scale" repeatCount="indefinite" dur="0.666667s" attributeName="transform" keySplines="0 0 1 1;0 0 1 1;0 0 1 1;0 0 1 1;0 0 1 1" calcMode="spline"/>
     <g>
      <animateTransform values="1 1.5;1 1.5;1 0.075;1 1.5;1 0;1 1.5" keyTimes="0;0;0.475;0.5;0.975;1" type="scale" repeatCount="indefinite" dur="0.666667s" attributeName="transform" keySplines="0 0 1 1;0 0 1 1;0 0 1 1;0 0 1 1;0 0 1 1" calcMode="spline"/>
      <g transform="skewX(0) skewY(0)">
       <g transform="translate(0 0)" opacity="1">
        <ellipse ry="718.061" fill="rgba(255, 255, 255, 1)" stroke="none" stroke-width="2" cy="0" rx="718.061" cx="0"/>
       </g>
      </g>
     </g>
    </g>
   </g>
  </g>
 </g>
 <defs/>
</svg>
